<svg width="650" height="638" viewBox="0 0 650 638" fill="none" xmlns="http://www.w3.org/2000/svg">
<path d="M227.11 124.313C226.992 124.313 226.874 124.261 226.8 124.16C226.668 123.99 226.699 123.741 226.87 123.609C226.922 123.57 232.011 119.737 239.056 123.15C239.252 123.247 239.331 123.483 239.239 123.675C239.143 123.872 238.911 123.95 238.714 123.859C232.125 120.663 227.543 124.086 227.355 124.234C227.281 124.287 227.197 124.313 227.11 124.313Z" fill="#4ED3F5"/>
<path d="M338.441 533.253C193.709 457.641 144.357 379.285 128.647 326.079H221.61C221.081 334.428 218.601 342.62 214.404 349.863C212.34 353.268 211.238 357.21 211.238 361.241C211.238 373.392 221.129 383.28 233.284 383.28C245.439 383.28 255.33 373.392 255.33 361.241C255.33 357.21 254.232 353.268 252.151 349.836C247.967 342.62 245.487 334.433 244.958 326.079H338.441V412.658L340.155 412.505C348.446 411.766 356.635 409.17 363.837 404.995C366.801 403.199 370.185 402.259 373.64 402.259C384.059 402.259 392.533 410.735 392.533 421.147C392.533 431.563 384.055 440.034 373.64 440.034C370.181 440.034 366.801 439.09 363.863 437.311C356.635 433.124 348.446 430.527 340.155 429.784L338.441 429.631V533.253Z" fill="#0075C9"/>
<path d="M341.594 433.102C348.913 433.985 355.857 436.306 362.262 440.017C365.668 442.08 369.612 443.181 373.644 443.181C385.799 443.181 395.69 433.294 395.69 421.142C395.69 408.991 385.799 399.103 373.644 399.103C369.608 399.103 365.664 400.205 362.232 402.281C355.852 405.979 348.909 408.3 341.594 409.183V326.079H451.67L451.723 324.558C452.081 313.796 449.414 303.192 444.014 293.882C442.217 290.918 441.277 287.535 441.277 284.082C441.277 273.665 449.751 265.194 460.17 265.194C470.59 265.194 479.063 273.665 479.063 284.082C479.063 287.539 478.123 290.918 476.339 293.855C470.926 303.192 468.259 313.801 468.618 324.558L468.666 326.079H551.384C535.674 379.284 486.322 457.641 341.589 533.257V433.102H341.594Z" fill="#4ED3F5"/>
<path d="M341.2 533.904V432.66L341.642 432.713C349.009 433.6 356.014 435.943 362.459 439.68C365.817 441.717 369.682 442.788 373.644 442.788C385.581 442.788 395.296 433.08 395.296 421.142C395.296 409.209 385.585 399.497 373.644 399.497C369.682 399.497 365.808 400.576 362.437 402.617C356.005 406.346 349.009 408.685 341.642 409.572L341.2 409.624V325.686H451.29L451.329 324.545C451.683 313.858 449.038 303.323 443.673 294.078C441.85 291.067 440.883 287.609 440.883 284.082C440.883 273.451 449.536 264.801 460.17 264.801C470.804 264.801 479.457 273.451 479.457 284.082C479.457 287.609 478.495 291.058 476.676 294.061C471.307 303.319 468.657 313.866 469.011 324.549L469.046 325.69H551.908L551.76 326.197C536.198 378.904 487.135 457.672 341.769 533.611L341.2 533.904ZM341.987 433.547V532.601C486.195 457.125 535.201 378.957 550.859 326.468H468.29L468.224 324.567C467.861 313.735 470.55 303.044 475.998 293.65C477.747 290.765 478.67 287.456 478.67 284.073C478.67 273.875 470.371 265.579 460.17 265.579C449.969 265.579 441.67 273.875 441.67 284.073C441.67 287.456 442.597 290.774 444.351 293.672C449.79 303.052 452.475 313.735 452.116 324.567L452.051 326.468H341.987V408.737C349.088 407.823 355.83 405.537 362.035 401.94C365.524 399.829 369.538 398.71 373.644 398.71C386.018 398.71 396.083 408.772 396.083 421.142C396.083 433.512 386.018 443.575 373.644 443.575C369.538 443.575 365.533 442.46 362.057 440.353C355.835 436.751 349.084 434.461 341.987 433.547Z" fill="#4ED3F5"/>
<path d="M233.284 380.128C222.864 380.128 214.391 371.652 214.391 361.24C214.391 357.783 215.331 354.404 217.115 351.467C221.863 343.28 224.526 333.987 224.836 324.558L224.889 322.932H127.746C123.658 308.11 121.585 293.208 121.585 278.622C121.585 244.724 132.32 213.025 151.808 189.368C171.877 165.004 199.651 151.584 230.013 151.584C267.24 151.584 294.787 167.098 311.337 180.11C327.703 192.979 336.854 206.009 338.441 208.361V248.4C331.782 247.364 325.451 245.126 319.596 241.734C316.19 239.671 312.246 238.57 308.215 238.57C296.059 238.57 286.169 248.457 286.169 260.609C286.169 272.76 296.059 282.648 308.215 282.648C312.246 282.648 316.19 281.551 319.627 279.47C325.455 276.091 331.786 273.853 338.446 272.822V322.936H241.683L241.736 324.562C242.046 333.991 244.714 343.288 249.445 351.445C251.242 354.408 252.182 357.792 252.182 361.245C252.177 371.652 243.703 380.128 233.284 380.128Z" fill="#27DEBF"/>
<path d="M230.534 143.205C226.087 143.922 226.354 144.648 225.781 144.722C225.103 144.814 217.084 140.797 217.084 140.797C217.084 140.797 193.355 129.121 192.1 128.444L174.973 106.964L161.773 113.031C161.773 113.031 181.034 135.866 182.253 136.871C183.473 137.877 217.495 149.771 220.451 150.916C220.451 150.916 223.433 153.635 225.366 155.274C227.294 156.913 229.878 157.564 230.495 157.94C230.586 157.997 232.716 159.116 235.724 159.767C238.317 160.331 236.157 158.574 236.157 158.574C236.157 158.574 231.57 156.642 231.798 156.297C231.973 156.026 234.408 157.236 237.272 157.888C238.007 158.054 238.732 158.22 239.401 158.364C241.159 158.744 241.929 157.739 240.166 157.044C239.541 156.799 238.496 156.415 237.709 156.253C236.857 156.074 236.144 155.632 235.453 155.37C234.084 154.85 233.083 154.491 233.136 154.443C233.206 154.382 233.013 154.08 233.8 154.233C234.745 154.417 236.655 155.265 238.072 155.427C238.877 155.519 240.538 155.811 240.538 155.811C240.538 155.811 243.481 156.091 243.503 155.68C243.546 154.78 241.736 154.282 240.621 154.303C239.922 153.949 238.16 153.687 238.16 153.687C238.16 153.687 234.745 152.345 234.946 151.842C235.025 151.641 237.093 151.952 239.283 152.1C241.601 152.258 243.28 152.258 243.406 151.812C243.603 151.104 241.758 150.833 241.758 150.833C241.758 150.833 240.132 150.597 239.598 150.474C238.973 150.33 237.141 149.762 237.141 149.762C237.141 149.762 230.862 147.463 231.089 146.999C231.317 146.536 232.353 145.57 232.795 145.574C233.236 145.579 234.028 146.016 234.474 146.02C234.915 146.024 235.868 145.937 235.934 145.382C236 144.827 233.542 143.677 233.542 143.677C233.542 143.677 231.815 142.995 230.534 143.205Z" fill="#7D4D2C"/>
<path d="M186.888 120.27C186.888 120.27 182.617 124.138 180.837 125.415C179.359 126.472 172.158 129.93 172.158 129.93C172.158 129.93 164.996 118.998 161.865 113.512C158.065 106.859 155.433 96.9675 156.334 96.7008C158.857 95.949 162.324 95.49 165.525 96.9543C176.609 102.025 186.888 120.27 186.888 120.27Z" fill="#7D4D2C"/>
<path d="M226.385 148.918C228.287 149.215 230.228 148.857 231.072 147.122C231.26 149.18 228.134 150.199 226.385 148.918Z" fill="#7D4D2C"/>
<path d="M116.951 287.002C116.951 287.002 116.479 295.372 116.474 295.39C116.299 296.452 115.613 299.079 115.613 300.045C115.613 303.673 131.765 296.963 128.144 295.355C127.816 295.211 126.098 294.109 125.993 292.872C125.827 290.971 125.407 287.12 125.407 287.12L116.951 287.002Z" fill="#7D4D2C"/>
<path d="M128.109 295.32C128.109 295.32 124.318 296.43 122.373 296.705C120.431 296.985 117.869 294.647 116.496 295.276C114.983 295.971 115.044 302.226 115.044 302.226C115.044 302.226 135.381 304.005 141.1 302.165C143.365 301.439 135.862 297.908 128.109 295.32Z" fill="#0B43A4"/>
<path d="M90.9874 286.499C90.9874 286.499 90.5152 294.87 90.5108 294.887C90.3359 295.949 89.6494 298.576 89.6494 299.542C89.6494 303.17 105.801 296.461 102.181 294.852C101.853 294.708 99.6273 292.785 99.518 291.548C99.3519 289.646 99.4393 286.617 99.4393 286.617L90.9874 286.499Z" fill="#7D4D2C"/>
<path d="M102.146 294.817C102.146 294.817 98.3549 295.927 96.4091 296.203C94.4678 296.483 91.9055 294.144 90.5326 294.773C89.0197 295.468 88.9585 301.724 88.9585 301.724C88.9585 301.724 109.15 302.55 115.136 301.662C117.493 301.313 109.898 297.4 102.146 294.817Z" fill="#0B43A4"/>
<path d="M94.6473 154.465C94.6473 154.465 91.9101 168.584 93.0251 179.293C94.1401 189.998 94.2275 228.035 94.2275 228.035L89.9688 288.89L100.069 289.126C100.069 289.126 112.045 228.302 111.822 229.862C111.599 231.423 115.841 187.034 115.841 187.034L101.56 153.132L94.6473 154.465Z" fill="#2D185D"/>
<path d="M98.4774 145.347C98.4774 145.347 86.0771 158.368 90.6901 172.592C92.544 178.305 109.828 232.883 110.051 237.346C110.274 241.809 115.897 291.115 115.897 291.115L127.642 290.761L130.182 235.938L126.824 162.075L119.693 149.618L98.4774 145.347Z" fill="#0B43A4"/>
<path d="M173.775 103.113C169.713 98.5979 160.876 92.0194 160.876 92.0194C160.876 92.0194 155.612 87.5346 153.465 86.7959C150.304 85.7118 144.895 82.8138 137.069 94.6376C131.459 103.104 96.1162 146.921 90.314 148.394L128.206 166.464C129.242 157.835 147.969 141.531 150.667 138.489C156.683 131.687 177.619 107.388 173.775 103.113Z" fill="#4ED3F5"/>
<path d="M172.004 84.606L160.203 91.4948C160.203 91.4948 159.871 101.54 163.732 104.145C166.967 106.335 169.433 101.081 169.433 101.081C169.433 101.081 173.823 95.0179 177.155 93.1296C180.487 91.2413 172.004 84.606 172.004 84.606Z" fill="#7D4D2C"/>
<path d="M170.028 89.0252C170.474 91.1189 171.501 94.1481 173.093 96.644C174.392 95.2409 175.856 93.864 177.159 93.1296C178.698 92.2598 177.719 90.3758 176.219 88.6012C174.103 86.4025 172.013 84.606 172.013 84.606L169.744 85.9304C169.591 86.7871 169.879 88.3258 170.028 89.0252Z" fill="#5E2E0D"/>
<path d="M178.152 67.3401C177.955 67.0953 168.253 79.1333 169.446 84.7808C170.644 90.4283 176.508 95.5818 180.583 94.1656C185.091 92.5963 193.477 78.4252 190.469 71.5451C187.465 64.6649 178.152 67.3401 178.152 67.3401Z" fill="#7D4D2C"/>
<path d="M188.777 63.5459C184.549 61.1987 177.649 60.5255 172.494 63.2181C166.154 66.527 164.711 74.8496 166.696 79.9245C168.681 84.9994 166.408 87.8712 166.408 87.8712L169.77 85.9129C169.77 85.9129 171.733 82.8575 171.991 80.4228C172.249 77.9881 175.813 78.4208 177.553 77.3149C178.891 76.4626 180.605 73.7 182.769 72.2663C182.769 72.2663 188.226 71.5975 190.911 73.1012C195.484 75.6583 194.837 66.903 188.777 63.5459Z" fill="#27DEBF"/>
<path d="M207.517 160.934C202.883 160.375 202.891 160.746 202.297 160.659C201.597 160.554 194.391 154.373 194.391 154.373C194.391 154.373 173.036 136.294 171.917 135.276L160.199 109.395L144.729 111.689C144.729 111.689 159.149 142.117 160.155 143.441C161.165 144.766 192.843 163.229 195.572 165.183C195.572 165.183 197.985 168.671 199.568 170.817C201.155 172.964 203.613 174.327 204.151 174.865C204.229 174.944 206.131 176.64 209.017 178.126C211.505 179.407 209.712 177.086 209.712 177.086C209.712 177.086 205.515 173.908 205.816 173.632C206.048 173.418 208.243 175.285 210.985 176.731C211.689 177.103 212.384 177.466 213.027 177.798C214.714 178.664 215.707 177.907 214.085 176.727C213.512 176.312 212.541 175.643 211.785 175.258C210.967 174.843 210.342 174.209 209.708 173.759C208.444 172.867 207.583 172.286 207.644 172.255C207.727 172.216 207.53 171.818 208.291 172.19C209.205 172.636 210.941 174.004 212.336 174.559C213.123 174.874 214.736 175.63 214.736 175.63C214.736 175.63 217.115 175.936 217.207 175.796C217.692 175.053 216.275 174.476 215.152 174.183C214.522 173.637 212.808 172.889 212.808 172.889C212.808 172.889 209.66 170.616 209.97 170.179C210.088 170.013 211.942 171.276 214.212 172.124C216.809 173.095 218.055 172.566 218.287 172.151C218.641 171.512 217.054 171.123 217.054 171.123C217.054 171.123 214.876 170.594 214.365 170.328C213.766 170.013 206.809 164.759 207.141 164.37C207.469 163.985 208.54 163.981 208.986 164.108C209.432 164.234 210.22 164.554 210.666 164.685C211.111 164.811 211.89 164.296 212.078 163.776C212.266 163.255 210.6 162.307 210.6 162.307C210.6 162.307 208.855 161.096 207.517 160.934Z" fill="#7D4D2C"/>
<path d="M147.182 124.269C147.182 124.269 151.633 122.858 154.489 121.555C156.399 120.681 164.738 116.546 164.738 116.546C164.738 116.546 161.143 101.426 158.712 95.9928C149.793 76.043 139.657 89.8033 138.28 93.0073C135.206 100.185 147.182 124.269 147.182 124.269Z" fill="#62BDF3"/>
<path d="M471.735 322.928C471.683 313.285 474.201 303.817 479.051 295.455C481.114 292.05 482.212 288.108 482.212 284.077C482.212 271.926 472.321 262.038 460.166 262.038C448.01 262.038 438.12 271.926 438.12 284.077C438.12 288.108 439.217 292.055 441.299 295.482C446.135 303.817 448.649 313.281 448.596 322.928H341.594V269.229L339.827 269.443C332.097 270.387 324.76 272.848 318.018 276.756C315.053 278.552 311.673 279.492 308.215 279.492C297.795 279.492 289.321 271.016 289.321 260.604C289.321 250.188 297.799 241.717 308.215 241.717C311.673 241.717 315.053 242.657 317.991 244.44C324.756 248.361 332.093 250.822 339.827 251.766L341.594 251.98V208.352C343.177 206.001 352.333 192.97 368.699 180.102C385.248 167.089 412.79 151.576 450.022 151.576C480.384 151.576 508.158 164.995 528.227 189.36C547.715 213.021 558.45 244.715 558.45 278.613C558.45 293.2 556.377 308.101 552.289 322.923H471.735V322.928Z" fill="#FFC15B"/>
<path d="M552.967 392.796H520.899C519.312 392.796 518.022 391.51 518.022 389.919C518.022 388.333 519.308 387.043 520.899 387.043H552.967C554.554 387.043 555.844 388.333 555.844 389.919C555.844 391.51 554.554 392.796 552.967 392.796Z" fill="#FFC15B"/>
<path d="M556.114 397.333H517.751C516.163 397.333 514.874 396.048 514.874 394.457C514.874 392.87 516.159 391.58 517.751 391.58H556.114C557.702 391.58 558.992 392.87 558.992 394.457C558.992 396.048 557.706 397.333 556.114 397.333Z" fill="#0B43A4"/>
<path d="M443.62 588.67C443.62 588.67 440.669 591.589 440.599 592.66C440.533 593.731 440.337 605.214 441.543 606.285C442.75 607.356 446.292 608.117 445.151 609.323C444.289 610.232 437.669 610.04 433.284 609.795C432.003 609.725 430.398 599.37 429.891 597.845C429.156 595.633 426.498 590.825 427.171 589.282C427.499 588.53 429.921 586.821 432.121 585.383C434.434 583.87 436.646 580.496 436.646 580.496L443.62 588.67Z" fill="#EFAC7F"/>
<path d="M483.13 595.842C483.13 595.842 480.489 603.409 480.484 603.426C480.288 604.624 479.514 607.588 479.514 608.676C479.514 612.772 497.734 605.201 493.65 603.387C493.278 603.221 492.119 601.91 491.997 600.52C491.809 598.373 493.532 595.681 493.532 595.681L483.13 595.842Z" fill="#EFAC7F"/>
<path d="M508.271 452.203L514.865 469.281C514.865 469.281 519.167 510.038 516.662 534.433C515.613 544.635 492.924 599.252 492.924 599.252L481.656 597.643L496.75 532.968L491.197 508.232L483.335 459.341L508.271 452.203Z" fill="#2D185D"/>
<path d="M477.2 453.091L471.542 472.105L462.937 529.498L433.83 583.184C433.83 583.184 438.207 589.902 442.907 590.956L484.218 536.693L506.605 468.766L505.818 453.672L477.2 453.091Z" fill="#0B43A4"/>
<path d="M564.073 421.435C560.684 422.969 561.03 423.603 560.592 423.787C560.072 424.001 552.941 421.737 552.941 421.737C552.941 421.737 531.887 415.228 530.759 414.826L513.064 397.748L503.755 406.04C503.755 406.04 523.4 423.992 524.559 424.713C525.718 425.435 554.982 430.173 557.549 430.693C557.549 430.693 560.435 432.695 562.28 433.884C564.125 435.069 566.298 435.191 566.858 435.427C566.941 435.462 568.843 436.113 571.353 436.157C573.517 436.192 571.467 434.942 571.467 434.942C571.467 434.942 567.457 433.993 567.571 433.617C567.658 433.329 569.823 434.006 572.219 434.072C572.835 434.089 573.443 434.103 574.003 434.111C575.467 434.133 575.887 433.036 574.357 432.713C573.815 432.599 572.914 432.437 572.258 432.433C571.55 432.428 570.898 432.144 570.299 432.031C569.114 431.803 568.248 431.65 568.283 431.598C568.327 431.528 568.117 431.279 568.773 431.274C569.56 431.266 571.235 431.707 572.389 431.585C573.045 431.515 574.418 431.476 574.418 431.476C574.418 431.476 576.639 431.113 576.652 430.951C576.727 430.09 575.069 429.793 574.195 430.029C573.57 429.823 572.122 429.919 572.122 429.919C572.122 429.919 569.158 429.303 569.219 428.787C569.267 428.363 576.591 428.162 576.613 427.292C576.635 426.58 574.427 426.519 574.427 426.519C574.427 426.519 573.089 426.606 572.643 426.593C572.118 426.58 570.557 426.388 570.557 426.388C570.557 426.388 565.135 425.413 565.227 424.932C565.319 424.451 565.957 423.332 566.307 423.249C566.657 423.166 567.37 423.433 567.724 423.35C568.078 423.267 568.476 422.79 568.419 422.248C568.366 421.71 566.534 421.304 566.534 421.304C566.534 421.304 565.048 420.989 564.073 421.435Z" fill="#F8A492"/>
<path d="M519.425 402.08L510.571 414.105C510.571 414.105 502.745 404.724 499.225 400.012C494.953 394.295 490.274 386.387 490.965 385.959C492.92 384.753 495.346 383.476 498.202 384.219C508.079 386.794 519.425 402.08 519.425 402.08Z" fill="#3B77BE"/>
<path d="M432.265 585.308C432.265 585.308 438.487 604.353 441.15 605.288C441.858 605.538 445.837 606.547 446.48 608.069C446.497 608.108 446.51 608.152 446.519 608.204C446.725 609.166 445.916 610.057 444.928 610.057H432.287C432.287 610.057 430.494 601.499 429.782 597.74C429.782 597.74 426.026 588.551 426.445 587.717C426.865 586.886 432.265 585.308 432.265 585.308Z" fill="#0B43A4"/>
<path d="M478.478 610.027L480.511 603.348C480.511 603.348 484.944 605.227 487.135 604.912C489.326 604.598 493.602 603.348 493.602 603.348C502.347 606.263 509.509 607.679 508.206 610.027H478.478Z" fill="#0B43A4"/>
<path d="M561.37 427.262C562.992 427.218 564.287 426.506 565.231 424.932C564.881 427.122 562.8 428.035 561.37 427.262Z" fill="#FE875E"/>
<path d="M479.461 383.865C479.461 383.865 468.893 384.98 465.356 386.221C462.404 387.253 458.403 396.904 458.403 396.904C458.403 396.904 474.42 443.195 473.794 451.473C473.165 459.748 471.385 472.009 471.385 472.009C471.385 472.009 502.928 473.998 514.878 469.286C514.878 469.286 511.104 450.534 511.104 445.607C511.104 440.681 508.984 391.467 507.48 388.888C505.971 386.309 502.932 384.845 497.169 383.586C491.398 382.322 479.461 383.865 479.461 383.865Z" fill="#27BDDE"/>
<path d="M481.565 370.088L479.461 383.861C479.461 383.861 485.793 391.156 490.379 389.736C494.227 388.542 493.217 383.135 493.217 383.135C493.217 383.135 491.118 375.342 491.748 371.443C492.373 367.544 481.565 370.088 481.565 370.088Z" fill="#EFAC7F"/>
<path d="M491.748 371.443C492.378 367.544 481.565 370.088 481.565 370.088L481.39 371.228C481.704 371.993 482.094 372.649 482.561 373.147C484.975 375.726 488.753 377.278 492.015 377.396C491.687 375.298 491.486 373.043 491.748 371.443Z" fill="#D19369"/>
<path d="M479.789 350.601C479.483 350.492 477.341 366.289 481.407 370.634C485.473 374.983 493.401 376.404 496.243 372.981C499.386 369.196 499.229 352.214 492.906 347.742C486.584 343.275 479.789 350.601 479.789 350.601Z" fill="#EFAC7F"/>
<path d="M490.501 339.293C485.613 340.285 482.447 343.249 481.284 344.512C479.063 344.774 476.046 345.99 472.933 351.113C469.103 357.411 471.932 364.388 476.392 367.81C480.851 371.233 480.79 375.18 480.79 375.18L481.494 373.143C482.014 371.596 482.229 369.952 482.054 368.326C481.949 367.351 481.739 366.298 481.332 365.428C480.261 363.142 483.637 361.621 484.585 359.719C485.316 358.255 485.351 354.902 486.496 352.481L487.869 350.632C487.869 350.632 491.035 348.188 494.131 348.879C497.218 349.574 496.772 338.025 490.501 339.293Z" fill="#282828"/>
<path d="M484.371 362.539C484.402 364.466 483.519 366.044 482.399 366.062C481.28 366.079 480.344 364.532 480.314 362.604C480.283 360.677 481.162 359.099 482.286 359.081C483.401 359.064 484.336 360.611 484.371 362.539Z" fill="#EFAC7F"/>
<path d="M498.669 450.73H562.332V395.518H498.669V450.73Z" fill="#0B43A4"/>
<path d="M538.286 450.73H593.514V395.518H538.286V450.73Z" fill="#ED8936"/>
<path d="M537.204 449.559C533.955 448.619 496.724 439.081 495.32 438.159C493.917 437.237 470.922 415.761 470.922 415.761L484.092 408.794L504.677 429.063C506.081 429.653 532.451 439.676 532.451 439.676C532.451 439.676 540.509 442.963 541.209 442.827C541.804 442.714 542.302 442.18 546.898 441.157C548.222 440.865 550.111 441.424 550.111 441.424C550.111 441.424 552.424 442.128 552.42 442.687C552.416 443.247 551.834 443.671 551.371 443.697C550.903 443.723 550.019 443.339 549.552 443.365C549.084 443.391 548.109 444.431 547.925 444.908C547.816 445.196 554.335 449.961 554.654 450.608C554.803 450.756 562.625 450.223 562.302 450.726C562.297 451.53 561.37 451.294 561.366 451.412C561.248 453.554 550.168 455.145 549.412 454.931C548.148 454.572 537.204 449.559 537.204 449.559Z" fill="#EFAC7F"/>
<path d="M478.014 425.649L493.103 415.775C493.103 415.775 475.626 389.281 469.662 386.545C465.557 384.661 460.441 387.502 458.438 394.465C456.261 402.027 478.014 425.649 478.014 425.649Z" fill="#3B77BE"/>
<path d="M587.994 407.998L585.436 410.45V396.126C585.436 394.64 584.23 393.438 582.747 393.438H560.374C558.887 393.438 557.684 394.64 557.684 396.126V412.776L554.93 408.003L545.481 410.756C545.481 410.756 553.063 425.181 557.684 427.537C563.867 430.684 579.223 430.614 585.441 427.537C589.223 425.666 595.677 414.113 595.677 414.113L587.994 407.998Z" fill="#FFC15B"/>
<path d="M579.481 429.251C579.044 424.294 575.708 420.443 571.659 420.443C567.592 420.443 564.247 424.324 563.828 429.307C568.672 430.077 574.663 430.051 579.481 429.251Z" fill="#0B43A4"/>
<path d="M446.217 26.9511C443.939 30.8282 439.864 30.6709 435.492 31.7549C432.558 32.4849 430.752 37.3106 431.036 40.9605C431.749 50.2054 424.5 48.6361 418.667 52.4652C404.697 61.6314 413.708 85.5502 428.973 87.0975C432.029 87.4079 435.509 86.9096 438.22 85.3884C440.393 84.1689 441.933 82.604 444.394 81.7342C449.541 79.9114 455.268 79.282 459.383 75.3261C465.268 69.6656 460.393 66.903 461.91 62.7854C463.427 58.6678 469.973 60.731 471.219 52.1986C472.566 42.9668 471.092 35.0114 467.686 30.4261C462.05 22.8378 452.147 22.3221 448.539 24.6256C447.459 25.3075 446.716 26.1074 446.217 26.9511Z" fill="#131313"/>
<path d="M510.34 44.2737C509.798 43.1284 504.966 46.5204 503.895 45.8735C502.823 45.2266 508.223 39.7845 507.673 38.836C506.658 37.0832 501.394 44.431 500.873 43.6574C500.353 42.8793 505.412 35.0331 503.606 34.6048C501.8 34.172 499.212 43.2858 498.285 42.7001C497.358 42.1143 501.455 34.443 499.706 32.8782C498.77 32.0433 494.367 46.8789 492.771 47.4952C491.175 48.1115 489.374 41.6335 487.87 41.887C486.366 42.1406 492.802 53.8027 492.487 54.7119C492.172 55.6211 486.278 74.6573 482.802 80.4053C480.708 79.4043 478.67 78.3989 476.724 77.4198C475.942 81.8346 475.859 86.4811 474.831 90.8173C481.582 93.7809 487.603 95.9359 489.562 95.2103C495.53 93.0116 498.473 64.0486 499.435 58.6459C500.397 53.2388 502.946 52.1766 504.398 49.3354C505.849 46.4898 510.882 45.4233 510.34 44.2737Z" fill="#5E2E0D"/>
<path d="M460.432 68.6646L450.441 78.7356C450.441 78.7356 463.637 85.8911 474.831 90.8086C475.858 86.4768 475.941 81.826 476.724 77.4111C467.476 72.7472 460.432 68.6646 460.432 68.6646Z" fill="#FFC15B"/>
<path d="M522.744 180.539C527.125 185.71 530.304 191.091 530.649 191.759C530.816 192.079 530.881 193.923 531.047 194.255C537.868 198.74 545.092 197.494 551.021 195.65C547.116 193.962 541.681 192.004 541.17 191.187C540.356 189.884 536.64 185.168 532.805 176.683C529.753 179.721 526.872 179.372 522.744 180.539Z" fill="#5E2E0D"/>
<path d="M530.724 192.004C530.129 194.727 530.365 200.252 530.907 200.37C531.554 200.515 554.448 203.894 557.378 200.956C559.14 199.19 555.813 197.831 551.025 195.645C545.091 197.499 530.942 193.849 530.724 192.004Z" fill="#4ED3F5"/>
<path d="M524.69 201.184C529.071 206.355 532.25 211.735 532.595 212.404C532.762 212.723 532.827 214.568 532.993 214.905C539.814 219.389 547.038 218.144 552.967 216.299C549.062 214.612 543.627 212.653 543.115 211.836C542.307 210.533 538.586 205.817 534.751 197.333C531.695 200.371 528.813 200.017 524.69 201.184Z" fill="#5E2E0D"/>
<path d="M532.665 212.653C532.07 215.377 532.306 220.902 532.849 221.02C533.496 221.164 556.39 224.543 559.319 221.605C561.082 219.839 557.754 218.48 552.966 216.294C547.033 218.143 532.888 214.498 532.665 212.653Z" fill="#4ED3F5"/>
<path d="M535.879 180.298L523.977 184.42L459.89 131.272C459.89 131.272 475.53 131.071 503.558 133.934C511.935 134.791 535.879 180.298 535.879 180.298Z" fill="#0B43A4"/>
<path d="M435.829 126.862C435.829 126.862 434.119 131.359 433.905 133.807C433.205 141.732 437.307 151.803 441.719 153.346C446.244 154.928 474.061 162.687 490.817 160.322L527.13 208.715L539.237 203.4L510.877 153.613C510.877 153.613 505.412 145.041 500.917 143.022C496.422 141.006 459.895 131.272 459.895 131.272L454.241 123.054L435.829 126.862Z" fill="#ED8936"/>
<path d="M465.356 76.6943C463.349 72.9832 461.281 70.0371 461.281 70.0371C459.2 66.326 453.822 64.4464 453.822 64.4464C453.822 64.4464 452.02 64.4814 449.956 64.5863C449.83 64.9316 449.698 65.1764 449.567 65.2726C448.789 65.8583 444.342 65.1021 441.465 67.0603C431.833 75.3436 434.495 115.488 435.252 128.168L458.653 129.03C458.653 129.03 460.892 101.164 466.851 94.1525C471.005 89.2743 468.334 82.1975 465.356 76.6943Z" fill="#FFC15B"/>
<path d="M452.133 50.8653C452.133 50.8653 450.52 62.4182 449.392 65.2244C448.264 68.0307 455.588 74.0366 461.674 75.8594C467.765 77.6821 459.811 69.6567 460.065 66.6582C460.319 63.6552 461.425 49.4491 461.425 49.4491L452.133 50.8653Z" fill="#5E2E0D"/>
<path d="M461.119 53.5186C461.298 51.1669 461.425 49.4447 461.425 49.4447L452.129 50.8653C452.129 50.8653 451.893 52.2204 451.635 54.1436C455.404 56.3336 458.793 55.6429 461.119 53.5186Z" fill="#47260F"/>
<path d="M455.046 29.766C455.046 29.766 451.382 30.5921 449.121 34.0584C446.86 37.5204 445.308 47.7138 452.759 52.4739C460.21 57.2297 466.003 50.5026 466.099 43.9371C466.195 37.3674 464.792 28.6077 455.046 29.766Z" fill="#5E2E0D"/>
<path d="M467.8 41.8784C467.166 43.4607 465.903 44.4442 464.984 44.0727C464.066 43.7011 463.834 42.1144 464.468 40.5321C465.107 38.9497 466.366 37.9662 467.284 38.3378C468.207 38.7093 468.439 40.2916 467.8 41.8784Z" fill="#5E2E0D"/>
<path d="M449.003 43.181C449.545 44.8857 449.051 46.5686 447.901 46.9358C446.751 47.303 445.383 46.2146 444.84 44.5098C444.303 42.8051 444.797 41.1222 445.947 40.755C447.092 40.3879 448.461 41.4719 449.003 43.181Z" fill="#5E2E0D"/>
<path d="M479.859 81.0785C479.859 81.0785 482.365 81.1485 483.078 81.0785C487.188 80.6851 485.482 86.7522 485.482 86.7522C485.482 86.7522 483.475 84.7852 482.671 84.7852C481.866 84.7852 480.747 85.0038 480.747 85.0038L479.859 81.0785Z" fill="#0B43A4"/>
<path d="M493.777 121.621C493.777 121.621 495.469 124.248 497.367 123.067C499.264 121.887 502.548 119.597 503.16 121.319C503.772 123.045 503.65 124.479 502.985 124.825C502.321 125.17 497.415 127.836 494.761 128.015C492.107 128.195 489.898 125.677 489.898 125.677L493.777 121.621Z" fill="#3B77BE"/>
<path d="M497.743 127.57C497.655 125.489 497.248 123.185 496.112 121.223C493.204 116.2 480.935 102.654 479.107 101.605C477.288 100.547 478.596 96.4736 478.596 96.4736L471.32 92.5484L467.529 90.4983C467.529 90.4983 458.937 103.607 458.281 104.844C457.625 106.081 458.788 110.133 457.918 112.629C457.066 115.121 457.953 128.649 456.72 130.136C455.758 131.097 454.862 131.233 454.56 131.814C454.42 132.076 454.254 132.513 454.608 132.964C455.597 134.231 460.629 133.165 460.629 133.165C460.664 133.086 462.741 130.171 462.418 128.44C462.094 126.761 463.121 116.668 463.817 116.668C464.429 116.668 467.332 121.157 468.486 122.01V122.018C468.618 122.11 468.718 122.167 468.801 122.167C469.636 122.167 475.01 123.352 476.195 124.532C476.51 124.851 476.637 125.699 476.646 126.765C476.663 127.478 476.624 128.282 476.558 129.1C476.444 130.599 476.234 132.138 476.086 133.152C477.363 133.16 478.644 133.165 479.92 133.156C480.97 131.259 483.191 129.952 485.758 129.952C488.176 129.952 490.283 131.11 491.398 132.833C493.545 132.719 494.376 133.764 496.217 133.589C496.326 132.946 497.773 128.391 497.743 127.57Z" fill="#4ED3F5"/>
<path d="M480.594 81.6687C479.789 80.895 478.648 80.5584 477.546 80.7289C476.947 80.825 476.077 80.8775 474.888 80.7726C472.216 80.5278 469.474 80.7464 467.752 82.4729C466.029 84.1952 465.81 90.3409 467.752 93.2259C469.693 96.1108 475.181 96.8408 475.666 98.1521C476.151 99.4634 480.908 100.093 481.591 98.4931C481.591 98.4931 482.107 98.8384 482.85 98.6286C484.629 98.1259 485.277 96.36 484.647 94.4673C484.017 92.5746 481.346 88.693 481.831 85.1961C482.054 83.5657 481.381 82.4249 480.594 81.6687Z" fill="#3B77BE"/>
<path d="M479.475 93.4925C479.164 93.8116 479.155 94.3186 479.444 94.6508C480.012 95.3109 480.992 96.373 481.696 96.7752C482.754 97.3828 483.76 94.8169 483.76 93.6673C483.755 92.5702 481.337 91.5823 479.475 93.4925Z" fill="#0B43A4"/>
<path d="M478.386 111.908C478.364 111.353 477.887 110.92 477.332 110.951C477.328 110.951 477.319 110.951 477.315 110.951C474.481 111.121 472.535 113.7 472.903 116.511C472.925 116.664 472.92 116.799 472.894 116.922C472.785 117.42 471.95 119.085 471.053 120.781C472.75 121.205 474.446 121.629 476.147 122.053C477.393 119.898 478.626 117.892 478.626 117.892L478.386 111.908Z" fill="#3B77BE"/>
<path d="M468.722 125.082C468.722 125.082 466.798 130.852 466.248 133.055C467.8 133.947 468.744 132.194 472.268 133.165C472.36 132.47 473.606 128.195 473.606 127.146C473.606 126.634 475.172 124.226 476.413 122.101C476.505 121.944 476.427 121.739 476.247 121.69C474.704 121.262 472.749 120.471 471.21 120.047C471.018 119.994 470.808 120.078 470.721 120.257C469.658 122.35 468.722 125.082 468.722 125.082Z" fill="#3B77BE"/>
<path d="M464.818 132.491C465.198 131.67 466.322 130.699 467.975 130.699C469.627 130.699 472.264 133.165 472.264 133.165C472.264 133.165 471.481 133.93 469.326 133.93C467.17 133.93 464.074 134.096 464.818 132.491Z" fill="#3B77BE"/>
<path d="M474.538 132.142C474.919 131.32 476.042 130.35 477.695 130.35C478.316 130.35 479.072 130.695 479.781 131.132C480.909 131.823 480.437 133.571 479.112 133.58C479.09 133.58 479.068 133.58 479.046 133.58C476.891 133.58 473.79 133.746 474.538 132.142Z" fill="#3B77BE"/>
<path d="M490.042 132.142C490.501 131.32 491.853 130.35 493.842 130.35C494.59 130.35 495.499 130.695 496.352 131.132C497.707 131.823 497.139 133.571 495.547 133.58C495.521 133.58 495.495 133.58 495.468 133.58C492.876 133.58 489.146 133.746 490.042 132.142Z" fill="#3B77BE"/>
<path d="M473.418 82.9318C472.636 82.1494 473.125 81.2315 473.55 80.6938C471.328 80.6457 469.186 81.0348 467.747 82.4685C466.025 84.1907 465.806 90.3365 467.747 93.2214C469.492 95.8135 474.092 96.6659 475.364 97.7586C476.68 95.5163 474.665 93.6323 474.192 92.5745C473.72 91.5167 476.558 88.8634 476.886 86.7522C477.218 84.6409 474.608 84.1208 473.418 82.9318Z" fill="#0B43A4"/>
<path d="M469.68 81.2446C469.68 81.2446 467.958 81.839 465.798 81.0741C463.633 80.3092 461.486 84.1688 461.486 84.1688C461.486 84.1688 463.489 88.5006 465.094 89.5541C466.694 90.6119 469.68 81.2446 469.68 81.2446Z" fill="#3B77BE"/>
<path d="M497.139 118.093C497.139 117.131 494.197 114.36 492.78 114.81C491.407 115.243 485.836 118.74 485.836 118.74L461.206 112.948C461.206 112.948 454.989 98.7772 454.381 86.6036C449.243 87.303 445.741 88.575 441.277 91.0622C443.432 102.707 448.666 121.577 454.455 125.117C456.891 126.608 485.959 123.334 485.959 123.334C485.959 123.334 492.006 124.178 493.506 123.767C499.671 122.062 497.139 120.03 497.139 118.093Z" fill="#5E2E0D"/>
<path d="M454.534 73.5951C453.773 69.919 452.881 66.2298 448.907 65.0671C446.445 64.3458 443.682 65.0365 441.714 66.6494C439.37 68.5683 438.719 71.6456 438.728 74.5567C438.754 81.1702 439.204 88.0285 440.407 94.5371C444.875 92.0499 451.377 92.334 456.515 91.639C456.996 85.7512 455.527 78.3815 454.534 73.5951Z" fill="#0B43A4"/>
<path d="M254.871 52.8979C252.265 66.7325 243.944 95.831 230.376 95.3764C229.716 76.3926 228.785 60.084 227.482 54.9305C227.184 53.8596 226.821 52.828 226.406 51.8314C234.858 52.5657 239.934 39.684 241.88 30.614C240.149 36.3707 236.222 45.5938 231.076 48.6754C228.155 50.4326 226.013 49.5453 225.199 49.3005C220.293 40.1692 211.028 34.0584 206.551 28.6208C203.014 24.2671 205.283 6.87447 206.157 1.35376C204.916 7.75744 203.586 17.1378 204.142 23.677C204.832 31.0511 208.641 31.5188 217.36 41.4281C224.342 49.2393 226.782 53.4574 227.027 83.3952C226.494 83.5044 225.816 83.6137 225.094 83.6443C217.945 83.7755 211.369 76.8341 207.727 70.7583C210.604 76.2834 215.707 82.5341 221.688 84.4311C222.781 84.7677 223.927 84.9731 225.09 85.0212C225.724 85.0343 226.415 84.9863 227.036 84.9076C227.189 87.5346 227.993 138.974 227.285 172.207C229.392 172.234 229.012 171.246 231.08 171.412C231.002 162.412 231.456 128.75 230.503 99.2098C246.327 98.5717 252.969 69.3027 254.871 52.8979Z" fill="#FFC15B"/>
<path d="M196.839 7.48712C200.062 10.0704 204.872 9.43663 204.872 9.43663L193.188 0.0693359C193.188 0.0693359 193.613 4.89942 196.839 7.48712Z" fill="#0B43A4"/>
<path d="M193.188 0.0686755L204.872 9.43597C204.872 9.43597 204.448 4.60589 201.221 2.01819C197.994 -0.565134 193.188 0.0686755 193.188 0.0686755Z" fill="#689FFF"/>
<path d="M251.11 93.1821C255.242 93.0248 258.461 89.4011 258.461 89.4011L243.494 89.965C243.498 89.965 246.978 93.3395 251.11 93.1821Z" fill="#0B43A4"/>
<path d="M243.499 89.9649L258.466 89.4011C258.466 89.4011 254.985 86.0266 250.849 86.1839C246.717 86.3369 243.499 89.9649 243.499 89.9649Z" fill="#689FFF"/>
<path d="M255.443 78.1323C258.268 76.3096 259.011 72.4368 259.011 72.4368L248.78 79.0415C248.784 79.0415 252.619 79.9551 255.443 78.1323Z" fill="#0B43A4"/>
<path d="M248.785 79.0416L259.017 72.4368C259.017 72.4368 255.182 71.5233 252.357 73.346C249.528 75.1688 248.785 79.0416 248.785 79.0416Z" fill="#689FFF"/>
<path d="M240.822 77.5696C241.985 80.7212 245.605 82.2948 245.605 82.2948L241.386 70.8774C241.386 70.8731 239.659 74.4137 240.822 77.5696Z" fill="#0B43A4"/>
<path d="M241.386 70.8719L245.606 82.2893C245.606 82.2893 247.333 78.7487 246.17 75.5928C245.007 72.4412 241.386 70.8719 241.386 70.8719Z" fill="#689FFF"/>
<path d="M207.663 16.1674C205.136 17.9246 204.581 21.4914 204.581 21.4914L213.732 15.1227C213.728 15.1227 210.19 14.4102 207.663 16.1674Z" fill="#0B43A4"/>
<path d="M213.726 15.1228L204.575 21.4915C204.575 21.4915 208.112 22.204 210.639 20.4468C213.171 18.6896 213.726 15.1228 213.726 15.1228Z" fill="#689FFF"/>
<path d="M242.606 41.6861C239.537 41.4456 236.843 43.8541 236.843 43.8541L247.958 44.7196C247.962 44.7196 245.676 41.9265 242.606 41.6861Z" fill="#0B43A4"/>
<path d="M247.962 44.7196L236.848 43.8541C236.848 43.8541 239.134 46.6473 242.204 46.8877C245.273 47.1281 247.962 44.7196 247.962 44.7196Z" fill="#689FFF"/>
<path d="M209.773 76.668C206.704 76.4276 204.01 78.8361 204.01 78.8361L215.125 79.7015C215.125 79.7015 212.843 76.9084 209.773 76.668Z" fill="#0B43A4"/>
<path d="M215.125 79.7015L204.01 78.8361C204.01 78.8361 206.297 81.6292 209.366 81.8696C212.436 82.11 215.125 79.7015 215.125 79.7015Z" fill="#689FFF"/>
<path d="M215.541 73.5645C214.422 70.6971 211.081 69.3202 211.081 69.3202L215.139 79.7016C215.139 79.7016 216.66 76.4276 215.541 73.5645Z" fill="#0B43A4"/>
<path d="M215.138 79.7016L211.081 69.3202C211.081 69.3202 209.559 72.5942 210.679 75.4616C211.798 78.329 215.138 79.7016 215.138 79.7016Z" fill="#689FFF"/>
<path d="M237.486 37.7521C236.799 35.9119 234.679 34.9983 234.679 34.9983L237.167 41.6686C237.171 41.673 238.177 39.5967 237.486 37.7521Z" fill="#0B43A4"/>
<path d="M237.171 41.6742L234.683 35.0039C234.683 35.0039 233.677 37.0802 234.368 38.9204C235.05 40.7607 237.171 41.6742 237.171 41.6742Z" fill="#689FFF"/>
<path d="M200.591 22.8815C197.714 21.7887 194.452 23.3361 194.452 23.3361L204.872 27.3007C204.872 27.3007 203.468 23.9743 200.591 22.8815Z" fill="#0B43A4"/>
<path d="M204.872 27.3007L194.452 23.3361C194.452 23.3361 195.856 26.6625 198.733 27.7553C201.61 28.8524 204.872 27.3007 204.872 27.3007Z" fill="#689FFF"/>
<path d="M237.259 171.526H238.885V107.777C238.885 107.327 238.522 106.964 238.072 106.964C237.622 106.964 237.259 107.327 237.259 107.777V171.526Z" fill="#0B43A4"/>
<path d="M218.334 173.812C218.334 173.812 225.811 164.825 231.832 167.382C237.853 169.939 238.837 165.319 241.985 166.844C245.133 168.37 249.073 172.212 249.073 172.212L218.334 173.812Z" fill="#3B77BE"/>
<path d="M232.772 125.791C231.058 125.791 229.078 125.397 226.926 124.265C226.734 124.165 226.66 123.924 226.76 123.732C226.861 123.539 227.097 123.465 227.294 123.566C233.769 126.979 238.439 123.347 238.636 123.19C238.806 123.054 239.051 123.08 239.191 123.251C239.327 123.421 239.3 123.666 239.13 123.806C239.095 123.837 236.603 125.791 232.772 125.791Z" fill="#4ED3F5"/>
<path d="M227.372 124.361L226.668 123.946C226.139 123.636 221.509 120.843 221.351 118.696C221.317 118.185 221.522 117.735 221.946 117.389C222.716 116.773 223.463 116.603 224.172 116.882C226.393 117.765 227.176 122.963 227.254 123.553L227.372 124.361ZM223.507 117.538C223.184 117.538 222.829 117.691 222.445 118.001C222.217 118.185 222.121 118.386 222.139 118.635C222.23 119.885 224.758 121.782 226.336 122.81C225.991 121.026 225.169 118.119 223.887 117.612C223.765 117.564 223.638 117.538 223.507 117.538Z" fill="#4ED3F5"/>
<path d="M222.418 129.121C222.138 129.121 221.749 129.016 221.456 128.523C221.216 128.12 221.172 127.675 221.334 127.237C221.963 125.524 225.667 124.239 226.087 124.095L227.049 123.771L226.555 124.658C226.144 125.397 224.01 129.091 222.44 129.117C222.431 129.121 222.427 129.121 222.418 129.121ZM225.291 125.249C224.045 125.777 222.392 126.647 222.073 127.513C221.994 127.727 222.012 127.919 222.134 128.12C222.265 128.339 222.374 128.335 222.427 128.335C223.1 128.326 224.351 126.739 225.291 125.249Z" fill="#4ED3F5"/>
<path d="M227.722 123.776C227.722 124.147 227.421 124.449 227.049 124.449C226.677 124.449 226.375 124.147 226.375 123.776C226.375 123.404 226.677 123.102 227.049 123.102C227.421 123.102 227.722 123.404 227.722 123.776Z" fill="#4ED3F5"/>
<path d="M576.976 175.543L580.452 169.672L577.584 163.478C577.256 162.775 577.881 162.001 578.642 162.167L585.301 163.658L590.307 159.02C590.876 158.491 591.807 158.845 591.877 159.619L592.515 166.411L598.475 169.738C599.153 170.118 599.105 171.11 598.392 171.416L592.126 174.122L590.806 180.814C590.657 181.575 589.695 181.837 589.184 181.251L584.671 176.133L577.894 176.946C577.12 177.042 576.578 176.211 576.976 175.543Z" fill="#FFC15B"/>
<path d="M82.6094 605.236H88.9582V268.171C88.9582 266.418 87.5371 264.997 85.7838 264.997C84.0304 264.997 82.6094 266.418 82.6094 268.171V605.236Z" fill="#4ED3F5"/>
<path d="M125.503 605.236H131.852V262.462C131.852 260.709 130.431 259.289 128.677 259.289C126.924 259.289 125.503 260.709 125.503 262.462V605.236Z" fill="#4ED3F5"/>
<path d="M130.829 301.536H87.1265V305.338H130.829V301.536Z" fill="#4ED3F5"/>
<path d="M130.829 352.503H87.1265V356.306H130.829V352.503Z" fill="#4ED3F5"/>
<path d="M130.829 403.474H87.1265V407.277H130.829V403.474Z" fill="#4ED3F5"/>
<path d="M130.829 454.441H87.1265V458.244H130.829V454.441Z" fill="#4ED3F5"/>
<path d="M99.3165 486.796H71.7482C69.4702 486.796 67.625 488.641 67.625 490.914V506.383H72.2336V491.718H99.3121V486.796H99.3165Z" fill="#13375B"/>
<path d="M104.586 476.349L96.0418 467.336C96.0418 467.336 86.8947 472.363 76.2303 477.171C73.3007 472.07 68.5173 455.294 68.2593 454.494C68.0013 453.689 73.8604 443.614 72.5531 443.361C71.2413 443.107 69.5404 448.741 68.1544 448.173C66.7683 447.601 63.2048 434.531 62.3696 435.243C60.8087 436.577 64.2454 443.374 63.4234 443.868C62.6014 444.362 60.5157 436.336 58.9241 436.677C57.3369 437.018 61.6088 443.986 61.1366 444.654C60.6687 445.323 56.2045 438.788 55.2819 440.301C54.7834 441.123 59.4007 445.992 58.4519 446.538C57.5031 447.085 53.3405 444.016 52.8421 445.008C52.3436 446.001 56.7248 447.037 57.9447 449.55C59.1603 452.063 61.3727 453.043 62.1073 457.798C62.8419 462.545 64.8488 487.955 70.0302 489.996C74.5469 491.775 104.586 476.349 104.586 476.349Z" fill="#EFAC7F"/>
<path d="M183.407 593.482C184.081 588.691 184.028 579.84 183.687 570.507C187.867 570.293 191.409 570.031 195.585 569.756C193.844 581.676 192.673 593.954 192.673 593.954L192.957 596.31L193.11 603.295L169.442 603.47C169.442 603.47 174.431 601.258 181.405 596.891C181.93 596.568 183.119 595.536 183.407 593.482Z" fill="#EFAC7F"/>
<path d="M193.753 604.795L168.799 605.087C167.894 605.009 167.675 604.274 167.99 603.824C168.637 602.897 171.484 602.216 174.689 600.738C180.307 601.324 192.065 597.486 192.952 596.197C193.46 598.784 194.255 604.681 193.753 604.795Z" fill="#0B43A4"/>
<path d="M225.812 588.547C223.857 584.119 219.148 576.627 213.936 568.873C217.377 566.491 220.792 564.065 224.194 561.625C228.999 572.676 233.936 584.062 233.936 584.062L235.422 585.916L239.235 591.769L219.218 604.388C219.218 604.388 222.292 599.882 225.917 592.49C226.179 591.944 226.647 590.444 225.812 588.547Z" fill="#EFAC7F"/>
<path d="M240.272 593.233L219.511 606.106C218.702 606.512 218.129 606.01 218.156 605.459C218.217 604.331 220.281 602.251 222.222 599.309C227.307 596.848 235.226 587.332 235.3 585.767C237.097 587.695 240.643 592.874 240.272 593.233Z" fill="#0B43A4"/>
<path d="M216.074 393.683C217.924 384.661 212.121 375.718 203.98 372.361C204.032 367.229 202.371 360.725 198.864 357.21C191.947 350.278 178.747 347.847 173.661 356.686C166.941 360.484 161.659 368.715 163.662 376.212C157.151 382.952 159.626 395.152 169.118 400.913C168.97 408.479 172.966 415.993 179.586 419.228C181.173 420.006 183.661 421.085 183.972 421.422C183.556 421.029 188.873 435.825 205.383 429.054C222.235 422.143 227.058 402.692 216.074 393.683Z" fill="#5E2E0D"/>
<path d="M182.97 586.715C185.021 575.351 177.898 547.174 173.556 534.787C169.04 521.901 166.167 467.375 166.167 467.375L171.287 461.391L192.183 460.141C192.183 460.141 183.294 487.452 183.294 496.837C183.294 506.221 187.618 530.442 192.699 543.048C197.386 554.675 195.441 579.057 194.019 587.074C190.246 587.677 186.661 587.459 182.97 586.715Z" fill="#0B43A4"/>
<path d="M197.469 462.672C198.427 463.629 204.041 470.278 204.041 474.924C204.041 479.571 193.455 521.398 195.996 523.933C198.536 526.468 207.933 532.815 213.932 541.658C218.982 549.106 230.569 570.647 232.781 575.77C228.418 578.808 224.627 580.194 220.25 581.654C219.55 577.842 185.327 540.124 181.418 532.238C177.509 524.353 175.393 488.3 173.417 483.509C171.44 478.723 166.171 466.554 166.171 466.554L197.469 462.672Z" fill="#0075C9"/>
<path d="M166.985 431.847C166.985 431.847 154.086 446.565 139.806 452.103C137.571 452.968 135.652 454.66 135.652 454.66C135.652 456.164 138.332 455.075 138.332 455.075C138.332 455.075 137.436 456.535 137.904 458.318C138.376 460.102 141.489 458.917 143.181 458.917C143.955 458.917 147.938 454.463 153.312 451.845C159.674 448.746 167.177 445.717 168.095 444.799C169.792 443.116 167.488 431.305 166.985 431.847Z" fill="#EFAC7F"/>
<path d="M193.224 390.422C193.224 390.422 180.242 389.106 173.465 393.425C166.692 397.744 162.363 413.143 162.363 419.713C162.363 426.287 167.247 460.836 165.372 467.41C165.372 467.41 186.827 466.471 194.164 466.471C201.501 466.471 203.01 463.651 203.01 463.651C203.01 463.651 187.767 448.628 187.767 442.058C187.767 435.493 193.224 390.422 193.224 390.422Z" fill="#ED8936"/>
<path d="M15.9297 567.456V589.968H18.3651V569.502H34.5082V576.527C28.2687 577.195 23.3935 582.956 23.3935 589.968C23.3935 597.429 28.9159 603.474 35.7281 603.474C42.5404 603.474 48.0628 597.429 48.0628 589.968C48.0628 582.956 43.1875 577.195 36.948 576.527V569.502H40.2973V566.836H36.948V558.732H40.2973V556.065H36.948V547.048H81.1097V543.044H56.7115V520.122C56.7115 513.998 62.3432 507.153 69.8769 507.153H90.8559V503.149H69.8769C60.9178 503.149 53.0561 511.078 53.0561 520.122V543.044H36.948V530.184H34.5126V556.061H26.3405C20.5995 556.061 15.9297 561.175 15.9297 567.456ZM34.5082 566.836H18.387C18.68 562.312 22.1342 558.732 26.3361 558.732H34.5082V566.836Z" fill="#0B43A4"/>
<path d="M25.4968 570.993C25.4968 570.993 25.9865 579.674 25.9909 579.691C26.1702 580.793 26.8829 583.516 26.8829 584.517C26.8829 588.28 10.1321 581.322 13.8836 579.656C14.2247 579.503 16.1573 577.418 16.6426 576.229C17.5084 574.109 17.8844 569.952 17.8844 569.952L25.4968 570.993Z" fill="#F48C7F"/>
<path d="M13.9272 579.617C13.9272 579.617 17.8624 580.766 19.8737 581.055C21.8894 581.343 24.5435 578.922 25.9689 579.573C27.5386 580.294 27.626 586.912 27.626 586.912C27.626 586.912 6.57272 587.612 0.451291 586.716C-1.98853 586.361 5.88624 582.301 13.9272 579.617Z" fill="#466EB6"/>
<path d="M109.356 552.45H113.982V464.316C113.982 461.343 116.894 458.922 120.475 458.922H162.105C163.216 458.922 164.116 458.061 164.116 456.998C164.116 455.936 163.216 455.075 162.105 455.075H120.475C114.345 455.075 109.356 459.219 109.356 464.311V552.45Z" fill="#0B43A4"/>
<path d="M87.6597 533.961C103.081 533.961 115.587 546.571 115.587 562.128C115.587 577.685 103.086 590.296 87.6597 590.296C72.2381 590.296 59.7329 577.685 59.7329 562.128C59.7329 546.571 72.2381 533.961 87.6597 533.961Z" fill="#0B43A4"/>
<path d="M53.6553 562.128C53.6553 581.072 68.8801 596.428 87.6598 596.428C106.439 596.428 121.664 581.072 121.664 562.128C121.664 543.188 106.439 527.828 87.6598 527.828C68.8801 527.828 53.6553 543.184 53.6553 562.128ZM56.8778 562.128C56.8778 544.98 70.6597 531.08 87.6598 531.08C104.66 531.08 118.442 544.98 118.442 562.128C118.442 579.276 104.66 593.176 87.6598 593.176C70.6597 593.176 56.8778 579.276 56.8778 562.128Z" fill="#0B43A4"/>
<path d="M109.986 523.049H123.65V470.132H109.986V523.049Z" fill="#FFC15B"/>
<path d="M65.1677 556.061H53.607C47.3763 556.061 42.3086 561.171 42.3086 567.457V589.968H44.9539V567.457C44.9539 562.644 48.8367 558.727 53.607 558.727H65.1677V556.061Z" fill="#FFC15B"/>
<path d="M24.4608 532.616H60.3892V526.452H24.4608V532.616Z" fill="#0B43A4"/>
<path d="M64.9713 566.836H43.6338V569.502H64.9713V566.836Z" fill="#FFC15B"/>
<path d="M113.068 543.044H63.8037V547.048H113.068V543.044Z" fill="#FFC15B"/>
<path d="M59.5047 532.614H123.648V526.358H59.5047V532.614Z" fill="#0B43A4"/>
<path d="M121.665 557.167H125.63V469.032C125.63 466.06 128.127 463.638 131.196 463.638H168.612V459.796H131.196C125.941 459.796 121.665 463.94 121.665 469.032V557.167Z" fill="#FFC15B"/>
<path d="M48.9155 589.968C48.9155 597.429 55.5835 603.474 63.8037 603.474C72.0283 603.474 78.6919 597.429 78.6919 589.968C78.6919 582.506 72.0283 576.461 63.8037 576.461C55.5791 576.461 48.9155 582.511 48.9155 589.968Z" fill="#0B43A4"/>
<path d="M54.7397 589.968C54.7397 594.509 58.7974 598.19 63.8038 598.19C68.8103 598.19 72.8679 594.509 72.8679 589.968C72.8679 585.426 68.8103 581.741 63.8038 581.741C58.7974 581.746 54.7397 585.426 54.7397 589.968Z" fill="#FFC15B"/>
<path d="M27.4948 503.149C31.8017 498.843 91.8047 500.919 91.8047 500.919C91.8047 500.919 40.9707 513.32 38.0018 514.938C35.0329 516.555 23.9881 571.133 23.975 571.845C20.9099 571.115 19.0516 571.666 15.9297 571.028C16.4281 561.547 20.5557 510.081 27.4948 503.149Z" fill="#3B77BE"/>
<path d="M33.3411 571.255C33.3411 571.255 33.8308 579.936 33.8352 579.953C34.0144 581.055 34.7271 583.778 34.7271 584.779C34.7271 588.543 17.9763 581.584 21.7278 579.918C22.0689 579.765 24.3776 577.772 24.4869 576.492C24.6574 574.516 24.5699 571.377 24.5699 571.377L33.3411 571.255Z" fill="#F7A491"/>
<path d="M21.7714 579.883C21.7714 579.883 25.7023 581.033 27.718 581.322C29.7337 581.61 32.3877 579.184 33.8131 579.84C35.3829 580.561 35.4703 587.179 35.4703 587.179C35.4703 587.179 14.4126 587.878 8.29555 586.982C5.8601 586.628 13.7349 582.563 21.7714 579.883Z" fill="#466EB6"/>
<path d="M101.162 513.237C101.162 513.237 100.646 526.853 96.1117 527.019C91.5775 527.181 62.4832 527.832 46.0996 526.359L35.0767 575.075L22.1299 573.829C22.1299 573.829 26.0301 541.295 27.4162 528.921C28.7804 516.747 32.7112 506.532 39.5978 506.283C46.4844 506.034 91.7436 499.035 91.7436 499.035L101.162 513.237Z" fill="#4ED3F5"/>
<path d="M113.361 449.668C113.361 449.668 120.706 451.53 119.71 465.872C118.713 480.213 110.777 523.61 96.1071 527.015C81.4332 530.42 71.875 499.534 71.875 499.534C71.875 499.534 81.1315 496.491 84.988 482.137C87.6595 472.192 94.8172 449.742 96.6099 448.663C101.065 445.979 113.361 449.668 113.361 449.668Z" fill="#ED8936"/>
<path d="M82.6094 546.125H86.5752V520.122C86.5752 513.998 92.6879 507.153 100.869 507.153H123.645V503.149H100.869C91.14 503.149 82.6094 511.078 82.6094 520.122V546.125Z" fill="#FFC15B"/>
<path d="M123.65 598.194C141.362 598.194 155.721 583.71 155.721 565.844C155.721 547.977 141.362 533.493 123.65 533.493C105.937 533.493 91.5776 547.977 91.5776 565.844C91.5776 583.71 105.937 598.194 123.65 598.194Z" fill="#FFC15B"/>
<path d="M84.5947 565.844C84.5947 587.599 102.08 605.236 123.649 605.236C145.219 605.236 162.704 587.599 162.704 565.844C162.704 544.089 145.219 526.451 123.649 526.451C102.08 526.451 84.5947 544.089 84.5947 565.844ZM88.2982 565.844C88.2982 546.152 104.126 530.184 123.649 530.184C143.172 530.184 159.001 546.147 159.001 565.844C159.001 585.535 143.172 601.503 123.649 601.503C104.122 601.503 88.2982 585.535 88.2982 565.844Z" fill="#FFC15B"/>
<path d="M97.1963 565.844C97.1963 580.579 109.037 592.525 123.645 592.525C138.254 592.525 150.094 580.579 150.094 565.844C150.094 551.109 138.254 539.162 123.645 539.162C109.041 539.162 97.1963 551.109 97.1963 565.844Z" fill="#0B43A4"/>
<path d="M117.698 565.844C117.698 569.161 120.361 571.845 123.649 571.845C126.937 571.845 129.6 569.157 129.6 565.844C129.6 562.526 126.937 559.842 123.649 559.842C120.361 559.842 117.698 562.526 117.698 565.844Z" fill="#FFC15B"/>
<path d="M5.67615 594.07H46.0601V587.076H5.67615V594.07Z" fill="#0B43A4"/>
<path d="M23.1343 594.07H46.0591V587.076H23.1343V594.07Z" fill="#FFC15B"/>
<path d="M65.1243 532.54H62.479V594.072H65.1243V532.54Z" fill="#FFC15B"/>
<path d="M62.2339 590.755C62.2339 591.664 62.9641 592.403 63.8648 592.403C64.7655 592.403 65.4957 591.664 65.4957 590.755C65.4957 589.845 64.7655 589.107 63.8648 589.107C62.9641 589.107 62.2339 589.845 62.2339 590.755Z" fill="#0B43A4"/>
<path d="M108.927 411.272C108.927 411.272 114.074 407.793 116.247 413.886C116.229 413.838 118.066 413.856 118.311 413.939C119.369 414.297 120.392 415.399 121.336 416.002C124.699 418.152 126.247 422.331 126.43 426.169C126.653 430.824 124.725 434.229 121.664 437.595C120.764 438.587 119.797 439.553 118.617 440.187C117.191 440.952 116.063 440.344 114.725 440.668C113.597 440.943 113.199 442.132 111.87 441.704C110.003 441.101 108.044 438.766 105.731 439.112C103.423 439.457 98.0882 437.381 98.0707 437.372C91.219 434.701 95.8451 421.439 97.1568 416.736C98.3942 412.308 104.691 409.668 108.927 411.272Z" fill="#282828"/>
<path d="M102.736 441.398L100.956 446.254L99.9988 448.969C99.9988 448.969 99.9332 453.825 101.066 455.084C103.016 457.248 111.035 449.222 111.035 449.222L113.575 433.95L102.736 441.398Z" fill="#EFAC7F"/>
<path d="M112.749 438.898C109.697 443.627 104.446 445.787 100.939 446.298L102.736 441.398L113.571 433.95L112.749 438.898Z" fill="#D19369"/>
<path d="M111.49 418.262C107.406 415.766 102.045 417.658 100.366 422.065C99.636 423.979 98.8183 426.409 98.1712 429.119C96.6059 435.641 98.5866 442.757 101.56 443.413C104.533 444.069 113.685 441.647 116.037 432.42C117.489 426.724 115.775 420.88 111.49 418.262Z" fill="#EFAC7F"/>
<path d="M113.685 432.673C113.365 434.116 114.065 435.497 115.246 435.759C116.426 436.021 117.642 435.06 117.961 433.617C118.28 432.175 117.58 430.789 116.4 430.531C115.219 430.269 114.004 431.226 113.685 432.673Z" fill="#EFAC7F"/>
<path d="M104.503 435.375C104.503 435.375 108.42 436.655 108.739 438.093C109.059 439.532 108.578 441.612 106.658 443.212C104.739 444.812 100.633 443.824 99.5136 442.945C98.3942 442.067 97.5416 438.334 98.6609 436.258C99.7847 434.177 104.503 435.375 104.503 435.375Z" fill="#282828"/>
<path d="M105.783 438.386C105.783 438.386 105.762 439.99 105.224 440.279C104.703 440.559 104.048 440.795 103.44 440.851C102.452 440.943 101.564 440.524 101.044 439.763C100.991 439.689 100.948 439.61 100.904 439.531C100.506 438.731 100.423 437.32 100.423 437.32C100.423 437.32 102.076 436.918 103.038 437.079C103.995 437.241 105.783 438.386 105.783 438.386Z" fill="#EFAC7F"/>
<path d="M148.157 457.086C149.709 455.538 156.906 453.143 162.363 449.2C164.776 447.456 169.416 445.161 173.928 442.666C177.225 444.493 180.211 446.787 182.437 449.528C174.269 453.283 165.402 457.055 164.055 458.402C161.515 460.937 157.094 466.663 156.058 466.663C155.022 466.663 147.169 464.364 145.992 463.188C144.816 462.016 146.605 458.633 148.157 457.086Z" fill="#EFAC7F"/>
<path d="M173.928 442.661C179.621 439.514 185.117 436.043 185.694 432.953C186.731 427.415 182.026 403.47 184.658 398.871C187.29 394.273 193.219 390.422 193.219 390.422C194.16 390.422 197.548 392.49 198.488 396.62C199.428 400.751 197.736 437.932 196.796 441.315C196.355 442.902 189.914 449.222 182.682 452.544C180.461 449.795 177.229 444.488 173.928 442.661Z" fill="#FFC15B"/>
<path d="M115.272 492.807L92.5701 498.751C92.5701 498.751 85.8934 503.564 82.8939 504.517C79.8944 505.47 76.2259 508.779 76.943 509.793C77.6644 510.807 81.4335 507.362 82.0456 507.467C82.6577 507.572 79.8288 511.65 79.3697 514.326C78.9106 517.001 77.9923 519.597 79.5271 519.387C81.0618 519.178 82.1724 513.154 82.1724 513.154C82.1724 513.154 84.5292 508.599 84.9096 509.137C85.29 509.675 83.3355 512.8 83.3355 512.8C83.3355 512.8 82.872 516.179 82.6665 517.368C82.5135 518.255 83.3311 520.917 84.0263 519.938C84.4373 519.361 84.245 517.167 84.7172 515.912C85.6922 513.338 87.2838 511.301 87.2838 511.301C87.2838 511.301 85.5785 519.003 86.6498 519.191C87.721 519.374 88.8316 512.992 88.8316 512.992C88.8316 512.992 91.4507 507.677 92.5963 507.205C93.7375 506.733 96.8813 504.705 99.3124 503.866C101.743 503.022 111.791 505.802 116.278 505.859C120.759 505.916 128.035 503.144 128.638 499.63C128.822 498.555 128.153 497.37 127.13 496.238C124.17 492.951 119.557 491.683 115.272 492.807Z" fill="#EFAC7F"/>
<path d="M113.361 449.668C113.361 449.668 120.23 448.444 126.448 459.625C132.665 470.807 128.638 499.626 128.638 499.626L115.272 492.807L113.361 449.668Z" fill="#FFC15B"/>
<path d="M143.951 459.319C143.146 459.319 138.914 459.586 138.249 458.922C137.584 458.257 140.435 456.561 140.724 456.85C141.012 457.138 142.219 456.504 142.621 456.907C143.024 457.309 144.235 456.85 144.58 457.195C144.93 457.536 144.755 459.319 143.951 459.319Z" fill="#EFAC7F"/>
<path d="M186.481 378.834C186.481 378.834 185.034 386.781 185.327 389.915C185.616 393.049 184.225 403.151 177.981 403.186C171.738 403.221 175.979 392.699 176.569 389.627C177.155 386.554 178.113 374.69 178.113 374.69L186.481 378.834Z" fill="#EFAC7F"/>
<path d="M177.724 379.188C177.82 376.587 178.292 374.52 178.292 374.52L186.486 378.834C186.486 378.834 186.189 380.46 185.891 382.528C182.223 383.315 179.311 381.601 177.724 379.188Z" fill="#D19369"/>
<path d="M186.661 355.755C186.661 355.755 190.181 357.009 192.096 360.83C194.011 364.654 194.641 375.359 186.923 379.472C179.206 383.586 174.116 375.997 174.593 369.205C175.069 362.408 177.208 353.504 186.661 355.755Z" fill="#EFAC7F"/>
<path d="M172.297 367.312C172.096 369.074 172.717 370.577 173.688 370.669C174.658 370.761 175.611 369.406 175.817 367.644C176.018 365.883 175.397 364.379 174.426 364.287C173.451 364.195 172.498 365.546 172.297 367.312Z" fill="#EFAC7F"/>
<path d="M191.414 370.276C190.736 371.98 191.073 373.772 192.17 374.275C193.263 374.778 194.702 373.803 195.379 372.098C196.057 370.394 195.721 368.601 194.627 368.099C193.53 367.596 192.091 368.571 191.414 370.276Z" fill="#EFAC7F"/>
<path d="M570.771 64.4158L585.835 85.0868L595.808 74.1808L570.771 64.4158Z" fill="#0B43A4"/>
<path d="M597.159 68.4678L595.808 74.1808L570.771 64.4158L597.159 68.4678Z" fill="#FFC15B"/>
<path d="M595.808 76.362L570.771 64.4158L594.042 85.0868L595.808 76.362Z" fill="#FFC15B"/>
<path d="M611.015 101.129C610.832 101.111 606.429 100.657 600.854 97.186C595.253 93.7022 593.158 87.6176 593.158 86.6429C593.158 86.2713 593.46 85.9697 593.832 85.9697C594.199 85.9697 594.501 86.267 594.505 86.6341C594.566 87.2854 596.354 92.8018 601.562 96.0452C606.848 99.3366 611.098 99.7868 611.138 99.7868C611.509 99.8218 611.78 100.154 611.745 100.526C611.715 100.893 611.387 101.164 611.015 101.129ZM594.509 86.6341C594.509 86.6385 594.509 86.6385 594.509 86.6429C594.509 86.6385 594.509 86.6385 594.509 86.6341Z" fill="#62BDF3"/>
<path d="M638.383 107.24C630.578 105.675 623.11 102.794 616.193 98.6766C610.491 95.2846 605.895 90.1179 600.084 87.2461C599.748 87.08 599.612 86.6779 599.778 86.3413C599.945 86.0091 600.347 85.8692 600.683 86.0353C606.7 89.0077 611.26 94.1699 616.883 97.5182C623.674 101.557 630.993 104.385 638.649 105.919C641.461 106.483 644.797 106.689 648.557 106.531C648.929 106.518 649.244 106.807 649.261 107.178C649.279 107.55 648.986 107.865 648.614 107.882C645.274 108.022 641.675 107.904 638.383 107.24Z" fill="#62BDF3"/>
<path d="M307.943 344.128C307.943 344.128 291.372 314.561 287.345 308.28C283.314 301.994 272.811 277.022 272.439 276.039C272.063 275.055 279.671 263.236 277.97 262.834C276.274 262.427 274.394 269.062 272.584 268.271C270.773 267.48 265.478 251.504 264.446 252.299C262.514 253.781 267.297 262.209 266.27 262.737C265.238 263.266 262.12 253.466 260.1 253.755C258.08 254.043 263.948 262.737 263.38 263.507C262.815 264.276 256.72 256.08 255.618 257.829C255.019 258.777 261.22 264.98 260.03 265.561C258.841 266.143 253.323 262.139 252.741 263.293C252.155 264.447 257.844 266.029 259.541 269.141C261.241 272.253 264.136 273.6 265.338 279.365C266.541 285.131 268.338 305.99 274.494 316.397C280.651 326.805 294.192 349.841 294.192 349.841L307.943 344.128Z" fill="#EFAC7F"/>
<path d="M381.379 486.796C381.379 486.796 380.028 485.113 379.626 484.519C379.149 483.824 377.89 481.63 377.89 481.63C377.89 481.63 373.854 473.775 374.457 473.526C375.061 473.272 376.508 474.234 376.928 474.632C377.347 475.029 377.877 475.453 378.296 475.851C378.716 476.249 379.354 476.266 379.888 475.777C380.417 475.292 379.092 473.342 378.497 472.761C376.652 470.947 370.736 467.1 370.129 466.663C369.407 466.152 364.921 451.237 362.975 446.254C362.975 446.254 362.975 446.254 362.98 446.254C360.041 437.997 357.431 429.364 357.125 428.486L355.275 390.999L341.266 386.331C341.266 386.331 342.735 427.961 343.046 430.037C343.194 431.025 351.489 449.633 351.498 449.629C356.159 458.533 360.291 466.37 361.043 467.896C361.043 467.896 362.061 473.067 362.512 476.402C362.967 479.733 364.72 482.618 364.991 483.535C365.03 483.671 365.791 486.875 368.104 490.197C370.098 493.06 369.521 489.41 369.521 489.41C369.521 489.41 366.784 483.426 367.291 483.286C367.684 483.177 368.983 486.534 371.156 489.725C371.716 490.547 372.267 491.355 372.783 492.09C374.134 494.026 375.712 493.729 374.623 491.473C374.239 490.678 373.565 489.367 372.958 488.505C372.297 487.574 371.991 486.499 371.558 485.629C370.697 483.903 370.046 482.653 370.133 482.657C370.251 482.661 370.321 482.194 370.942 483.042C371.685 484.064 372.787 486.6 374.003 488.02C374.689 488.825 376.023 490.595 376.023 490.595C376.023 490.595 378.502 493.226 378.685 493.121C379.687 492.553 378.449 490.158 377.374 489.187C377.006 488.213 375.55 486.39 375.55 486.39C375.55 486.39 373.434 482.027 374.046 481.713C374.549 481.45 381.632 490.888 382.594 490.25C383.381 489.734 381.379 486.796 381.379 486.796Z" fill="#EFAC7F"/>
<path d="M356.324 340.753C356.665 332.575 355.459 324.501 351.799 316.887C348.651 310.335 340.859 306.619 333.754 306.61C311.192 306.58 308.324 336.378 293.965 347.874C289.575 351.388 284.673 354.247 280.519 358.036C265.185 372.024 272.094 397.91 286.173 410.171C295.941 418.681 311.297 423.516 323.339 416.863C329.626 413.392 334.397 407.618 337.794 401.297C342.617 392.324 345.73 381.968 349.158 372.4C352.813 362.224 355.874 351.624 356.324 340.753Z" fill="#282828"/>
<path d="M285.802 604.008C285.802 604.008 284.215 615.006 281.477 618.555C280.559 619.748 278.885 621.252 277.783 623.407C276.069 626.759 277.017 631.747 278.281 634.496C278.928 635.908 278.237 635.904 279.711 636.358C284.083 637.705 288.736 635.436 290.598 631.257C291.639 628.923 292.553 625.811 292.736 621.886C293.204 611.898 296.317 606.823 296.317 606.823L285.802 604.008Z" fill="#EFAC7F"/>
<path d="M333.64 609.039C333.64 609.039 334.624 621.44 333.824 625.47C333.396 627.629 331.021 632.07 332.11 634.103C333.199 636.135 334.445 636.642 334.445 636.642L362.682 637.097C364.221 637.123 363.203 636.135 361.965 635.226C359.936 633.736 358.297 632.752 351.812 629.622C351.388 629.417 349.849 628.442 349.294 628.106C347.886 627.249 346.474 625.898 345.254 624.548C343.225 622.296 343.05 611.373 343.05 611.373L333.64 609.039Z" fill="#EFAC7F"/>
<path d="M355.713 444.178C355.713 444.178 359.267 464.316 356.933 477.516C354.598 490.717 343.391 613.091 343.391 613.091L330.938 613.79C330.938 613.79 328.328 562.67 328.796 555.563C329.264 548.455 332.958 536.557 332.958 536.557L331.721 495.285L347.436 441.066L355.713 444.178Z" fill="#2D185D"/>
<path d="M319.111 439.942C319.111 439.942 309.303 454.669 306.968 466.855C304.633 479.042 308.682 516.494 304.192 532.461C301.761 541.107 292.548 554.457 291.144 565.625C289.745 576.797 284.249 606.058 284.249 606.058L296.697 608.519L325.625 535.442L348.319 469.391L354.129 435.37L319.111 439.942Z" fill="#0B43A4"/>
<path d="M327.047 356.161C327.047 356.161 314.065 355.335 308.927 360.921C303.79 366.508 320.322 410.691 321.253 417.798C322.189 424.906 316.492 443.806 316.492 443.806C316.492 443.806 346.989 449.93 355.708 444.174C355.708 444.174 356.644 393.053 355.708 387.979C354.777 382.899 346.994 362.25 345.122 360.218C343.26 358.189 327.047 356.161 327.047 356.161Z" fill="#ED8936"/>
<path d="M331.371 338.852C331.371 338.852 331.305 339.232 331.183 339.883C330.606 342.995 328.376 353.329 326.867 356.17C325.049 359.601 333.098 370.547 340.846 369.213C343.155 368.816 338.896 359.155 339.102 358.133C339.495 356.174 340.024 353.504 340.566 350.763C340.872 349.216 341.183 347.651 341.476 346.178C342.302 341.99 342.98 338.568 342.98 338.568L331.371 338.852Z" fill="#EFAC7F"/>
<path d="M331.183 339.883C331.305 339.236 331.371 338.852 331.371 338.852L342.984 338.563C342.984 338.563 342.306 341.986 341.48 346.173C341.191 347.638 340.881 349.198 340.575 350.732C338.782 350.47 336.911 349.6 335.031 347.961C332.984 346.173 331.642 344.023 330.833 341.732C330.973 340.998 331.091 340.364 331.183 339.883Z" fill="#D19369"/>
<path d="M339.184 312.52C339.184 312.52 333.71 311.891 330.282 316.314C326.85 320.742 323.155 334.428 331.677 341.872C340.199 349.316 348.62 340.889 349.866 331.958C351.113 323.028 351.598 312.197 339.184 312.52Z" fill="#EFAC7F"/>
<path d="M352.385 331.827C351.366 333.799 349.661 334.892 348.572 334.266C347.483 333.641 347.427 331.534 348.441 329.563C349.46 327.592 351.165 326.499 352.254 327.124C353.347 327.749 353.404 329.856 352.385 331.827Z" fill="#EFAC7F"/>
<path d="M339.797 311.06C339.797 311.06 332.486 324.077 327.257 324.681C322.027 325.284 321.341 332.199 321.341 332.199C321.341 332.199 323.212 316.262 328.389 313.189C333.566 310.107 339.797 311.06 339.797 311.06Z" fill="#282828"/>
<path d="M291.451 629.063C284.665 630.296 280.152 626.34 277.804 623.372C276.082 626.729 275.238 631.742 276.506 634.501C277.621 636.931 280.887 636.861 283.458 636.957C286.173 637.058 288.276 635.55 289.627 633.189C290.257 632.083 290.904 630.711 291.451 629.063Z" fill="#0B43A4"/>
<path d="M349.294 628.101C341.826 630.011 336.303 628.713 333.216 627.472C332.42 629.723 331.362 632.551 331.922 634.177C332.608 636.17 333.583 636.62 334.445 636.647C341.266 636.826 359.433 637.071 364.632 637.136C365.358 637.145 365.76 636.297 365.293 635.742C364.007 634.203 349.849 628.442 349.294 628.101Z" fill="#0B43A4"/>
<path d="M328.625 327.946C329.049 330.258 328.197 332.378 326.714 332.68C325.232 332.981 323.689 331.355 323.265 329.043C322.84 326.731 323.693 324.61 325.175 324.309C326.658 324.007 328.201 325.638 328.625 327.946Z" fill="#EFAC7F"/>
<path d="M303.357 334.546C303.357 334.546 321.686 354.207 324.41 362.132C327.134 370.057 321.752 381.391 314.323 381.89C306.89 382.384 290.353 346.991 290.353 346.991L303.357 334.546Z" fill="#ED8936"/>
<path d="M324.17 85.961L303.47 90.4676C298.508 91.5473 293.606 88.4001 292.526 83.4389L290.598 74.583C289.518 69.6218 292.666 64.7218 297.629 63.6421L318.328 59.1355C323.291 58.0558 328.192 61.203 329.272 66.1642L331.2 75.0201C332.28 79.9813 329.132 84.8813 324.17 85.961Z" fill="#FFC15B"/>
<path d="M292.714 78.6219L283.847 92.9461L297.454 87.0932L292.714 78.6219Z" fill="#FFC15B"/>
<path d="M302.731 74.6268L306.181 73.7831C306.181 73.7831 309.81 69.5388 309.684 68.3542C309.557 67.174 308.293 64.8967 308.901 64.4377C309.509 63.9787 310.89 63.4149 312.141 64.7349C313.05 65.6922 313.413 69.8579 313.881 70.0371C314.174 70.1507 316.172 69.718 317.624 69.3814C318.582 69.1585 319.578 69.4863 320.217 70.2338H320.221C320.654 70.7365 320.676 71.4752 320.274 71.9997L319.644 72.8215L320.435 73.4903C321.026 73.9886 321.1 74.8715 320.602 75.4616L320.094 76.0649L320.619 76.4451C321.297 76.9347 321.393 77.9051 320.833 78.5258L320.379 79.0285L320.492 79.1596C320.973 79.706 320.956 80.5321 320.449 81.0567L319.985 81.5419L310.794 83.7886C309.933 83.9984 309.036 84.029 308.162 83.8848L304.8 84.1383C304.437 84.1645 304.113 83.9241 304.03 83.57L302.185 75.4966C302.102 75.1076 302.342 74.7185 302.731 74.6268Z" fill="white"/>
</svg>
